<svg width="24" height="24" viewBox="0 0 24 24" fill="none" xmlns="http://www.w3.org/2000/svg">
<path fill-rule="evenodd" clip-rule="evenodd" d="M21.5 5.5V12.5C21.5 13.0523 21.0523 13.5 20.5 13.5L3.5 13.5C2.94772 13.5 2.5 13.0523 2.5 12.5L2.5 5.5C2.5 4.94771 2.94772 4.5 3.5 4.5L20.5 4.5C21.0523 4.5 21.5 4.94772 21.5 5.5ZM20.5 3C21.8807 3 23 4.11929 23 5.5V12.5C23 13.8807 21.8807 15 20.5 15L3.5 15C2.11929 15 1 13.8807 1 12.5V5.5C1 4.11929 2.11929 3 3.5 3H20.5ZM4 10.25C3.58579 10.25 3.25 10.5858 3.25 11C3.25 11.4142 3.58579 11.75 4 11.75V11L4.00003 11.75H4.00013H4.0003H4.00053H4.00082H4.00119H4.00161H4.0021H4.00266H4.00328H4.00396H4.00471H4.00552H4.0064H4.00734H4.00834H4.00941H4.01053H4.01172H4.01298H4.01429H4.01567H4.0171H4.0186H4.02016H4.02179H4.02347H4.02521H4.02702H4.02888H4.0308H4.03279H4.03483H4.03693H4.0391H4.04132H4.0436H4.04593H4.04833H4.05078H4.0533H4.05587H4.05849H4.06118H4.06392H4.06672H4.06957H4.07249H4.07545H4.07848H4.08156H4.08469H4.08788H4.09113H4.09443H4.09779H4.1012H4.10466H4.10818H4.11175H4.11538H4.11906H4.12279H4.12658H4.13041H4.13431H4.13825H4.14225H4.14629H4.15039H4.15455H4.15875H4.163H4.16731H4.17166H4.17607H4.18053H4.18503H4.18959H4.1942H4.19885H4.20356H4.20831H4.21312H4.21797H4.22287H4.22782H4.23282H4.23786H4.24295H4.24809H4.25328H4.25852H4.2638H4.26912H4.2745H4.27992H4.28538H4.29089H4.29645H4.30205H4.3077H4.31339H4.31913H4.32491H4.33074H4.33661H4.34252H4.34848H4.35448H4.36053H4.36661H4.37274H4.37892H4.38513H4.39139H4.39769H4.40403H4.41041H4.41683H4.4233H4.4298H4.43635H4.44294H4.44957H4.45623H4.46294H4.46969H4.47647H4.4833H4.49016H4.49707H4.50401H4.51099H4.51801H4.52507H4.53216H4.53929H4.54646H4.55367H4.56091H4.56819H4.57551H4.58286H4.59025H4.59768H4.60514H4.61263H4.62017H4.62773H4.63533H4.64297H4.65064H4.65835H4.66608H4.67386H4.68166H4.6895H4.69738H4.70528H4.71322H4.72119H4.72919H4.73723H4.7453H4.7534H4.76153H4.76969H4.77788H4.78611H4.79436H4.80264H4.81096H4.8193H4.82768H4.83608H4.84452H4.85298H4.86147H4.86999H4.87854H4.88712H4.89573H4.90436H4.91302H4.92171H4.93043H4.93917H4.94794H4.95674H4.96556H4.97441H4.98329H4.99219H5.00112H5.01007H5.01905H5.02805H5.03708H5.04613H5.05521H5.06431H5.07344H5.08258H5.09176H5.10095H5.11017H5.11941H5.12868H5.13796H5.14727H5.1566H5.16596H5.17533H5.18473H5.19414H5.20358H5.21304H5.22252H5.23202H5.24154H5.25108H5.26064H5.27022H5.27982H5.28944H5.29907H5.30873H5.3184H5.3281H5.33781H5.34753H5.35728H5.36704H5.37682H5.38662H5.39644H5.40627H5.41612H5.42598H5.43586H5.44576H5.45567H5.46559H5.47553H5.48549H5.49546H5.50545H5.51545H5.52546H5.53549H5.54553H5.55559H5.56566H5.57574H5.58583H5.59594H5.60606H5.61619H5.62634H5.63649H5.64666H5.65684H5.66703H5.67723H5.68744H5.69766H5.70789H5.71814H5.72839H5.73865H5.74892H5.7592H5.76949H5.77979H5.7901H5.80042H5.81074H5.82107H5.83141H5.84176H5.85212H5.86248H5.87285H5.88322H5.89361H5.90399H5.91439H5.92479H5.9352H5.94561H5.95603H5.96645H5.97688H5.98731H5.99775H6.00819H6.01863H6.02908H6.03953H6.04999H6.06045H6.07091H6.08138H6.09184H6.10231H6.11279H6.12326H6.13374H6.14421H6.15469H6.16517H6.17565H6.18613H6.19661H6.2071H6.21758H6.22806H6.23854H6.24902H6.2595H6.26998H6.28046H6.29094H6.30141H6.31189H6.32236H6.33283H6.34329H6.35376H6.36422H6.37468H6.38513H6.39558H6.40603H6.41647H6.42691H6.43735H6.44778H6.45821H6.46863H6.47904H6.48945H6.49986H6.51026H6.52065H6.53104H6.54142H6.55179H6.56216H6.57252H6.58287H6.59321H6.60355H6.61388H6.6242H6.63452H6.64482H6.65512H6.6654H6.67568H6.68595H6.69621H6.70646H6.7167H6.72693H6.73714H6.74735H6.75755H6.76773H6.77791H6.78807H6.79822H6.80836H6.81849H6.82861H6.83871H6.8488H6.85888H6.86894H6.87899H6.88903H6.89905H6.90906H6.91906H6.92904H6.939H6.94896H6.95889H6.96881H6.97872H6.98861H6.99848H7.00834H7.01819H7.02801H7.03782H7.04761H7.05739H7.06714H7.07688H7.08661H7.09631H7.106H7.11566H7.12531H7.13494H7.14456H7.15415H7.16372H7.17327H7.18281H7.19232H7.20181H7.21129H7.22074H7.23017H7.23958H7.24897H7.25833H7.26768H7.277H7.2863H7.29558H7.30484H7.31407H7.32328H7.33247H7.34164H7.35078H7.35989H7.36899H7.37805H7.3871H7.39612H7.40511H7.41408H7.42302H7.43194H7.44084H7.4497H7.45854H7.46736H7.47615H7.48491H7.49364H7.50235H7.51103H7.51968H7.52831H7.5369H7.54547H7.55401H7.56252H7.571H7.57946H7.58788H7.59627H7.60464H7.61297H7.62128H7.62955H7.6378H7.64601H7.65419H7.66234H7.67046H7.67855H7.68661H7.69463H7.70262H7.71058H7.71851H7.72641H7.73427H7.7421H7.74989H7.75765H7.76538H7.77307H7.78073H7.78835H7.79594H7.8035H7.81102H7.8185H7.82595H7.83336H7.84074H7.84808H7.85539H7.86265H7.86988H7.87708H7.88423H7.89135H7.89844H7.90548H7.91249H7.91945H7.92638H7.93327H7.94012H7.94694H7.95371H7.96044H7.96714H7.97379H7.9804H7.98698H7.99351H8H8.00658H8.01339H8.02042H8.02767H8.03514H8.04283H8.05074H8.05886H8.06721H8.07576H8.08454H8.09353H8.10273H8.11214H8.12176H8.1316H8.14164H8.15189H8.16235H8.17301H8.18389H8.19496H8.20624H8.21772H8.22941H8.24129H8.25338H8.26566H8.27814H8.29082H8.3037H8.31677H8.33004H8.3435H8.35715H8.371H8.38503H8.39925H8.41367H8.42827H8.44306H8.45803H8.4732H8.48854H8.50407H8.51978H8.53567H8.55174H8.568H8.58443H8.60104H8.61782H8.63479H8.65192H8.66923H8.68672H8.70438H8.7222H8.7402H8.75837H8.77671H8.79521H8.81388H8.83272H8.85172H8.87089H8.89022H8.90971H8.92936H8.94918H8.96915H8.98928H9.00957H9.03001H9.05061H9.07137H9.09228H9.11334H9.13455H9.15592H9.17743H9.1991H9.22091H9.24287H9.26498H9.28723H9.30962H9.33216H9.35485H9.37767H9.40064H9.42374H9.44699H9.47037H9.49389H9.51754H9.54134H9.56526H9.58932H9.61351H9.63783H9.66229H9.68687H9.71159H9.73643H9.76139H9.78649H9.81171H9.83705H9.86251H9.8881H9.91381H9.93964H9.96559H9.99166H10.0178H10.0442H10.0706H10.0971H10.1238H10.1505H10.1774H10.2044H10.2315H10.2587H10.286H10.3134H10.3409H10.3686H10.3963H10.4242H10.4521H10.4801H10.5083H10.5365H10.5649H10.5933H10.6219H10.6505H10.6793H10.7081H10.737H10.766H10.7951H10.8243H10.8536H10.883H10.9125H10.942H10.9717H11.0014H11.0312H11.0611H11.0911H11.1211H11.1513H11.1815H11.2118H11.2421H11.2726H11.3031H11.3337H11.3644H11.3952H11.426H11.4569H11.4878H11.5189H11.55H11.5812H11.6124H11.6437H11.6751H11.7065H11.738H11.7696H11.8012H11.8329H11.8646H11.8964H11.9283H11.9602H11.9921H12.0242H12.0562H12.0884H12.1206H12.1528H12.1851H12.2174H12.2498H12.2822H12.3147H12.3472H12.3798H12.4124H12.4451H12.4778H12.5105H12.5433H12.5761H12.6089H12.6418H12.6748H12.7077H12.7407H12.7737H12.8068H12.8399H12.873H12.9062H12.9394H12.9726H13.0058H13.0391H13.0724H13.1057H13.139H13.1724H13.2058H13.2392H13.2726H13.3061H13.3395H13.373H13.4065H13.44H13.4735H13.5071H13.5406H13.5742H13.6077H13.6413H13.6749H13.7085H13.7421H13.7757H13.8093H13.8429H13.8766H13.9102H13.9438H13.9774H14.0111H14.0447H14.0783H14.1119H14.1455H14.1791H14.2127H14.2463H14.2799H14.3135H14.3471H14.3806H14.4142H14.4477H14.4812H14.5147H14.5482H14.5817H14.6151H14.6486H14.682H14.7154H14.7488H14.7821H14.8155H14.8488H14.882H14.9153H14.9485H14.9817H15.0149H15.0481H15.0812H15.1143H15.1473H15.1803H15.2133H15.2463H15.2792H15.3121H15.3449H15.3777H15.4105H15.4432H15.4759H15.5085H15.5411H15.5737H15.6062H15.6386H15.671H15.7034H15.7357H15.768H15.8002H15.8324H15.8645H15.8966H15.9286H15.9605H15.9924H16.0242H16.056H16.0877H16.1194H16.151H16.1825H16.214H16.2454H16.2768H16.3081H16.3393H16.3704H16.4015H16.4325H16.4635H16.4943H16.5251H16.5559H16.5865H16.6171H16.6476H16.678H16.7084H16.7386H16.7688H16.7989H16.829H16.8589H16.8888H16.9186H16.9483H16.9779H17.0074H17.0368H17.0662H17.0954H17.1246H17.1537H17.1827H17.2116H17.2404H17.2691H17.2977H17.3262H17.3546H17.3829H17.4111H17.4393H17.4673H17.4952H17.523H17.5507H17.5783H17.6058H17.6332H17.6604H17.6876H17.7147H17.7416H17.7684H17.7952H17.8218H17.8483H17.8747H17.9009H17.9271H17.9531H17.979H18.0048H18.0305H18.056H18.0814H18.1067H18.1319H18.157H18.1819H18.2067H18.2314H18.2559H18.2803H18.3046H18.3287H18.3528H18.3766H18.4004H18.424H18.4475H18.4708H18.494H18.5171H18.54H18.5628H18.5854H18.6079H18.6302H18.6524H18.6745H18.6964H18.7182H18.7398H18.7612H18.7826H18.8037H18.8247H18.8456H18.8663H18.8868H18.9072H18.9275H18.9475H18.9675H18.9872H19.0068H19.0263H19.0455H19.0646H19.0836H19.1024H19.121H19.1394H19.1577H19.1758H19.1938H19.2115H19.2291H19.2466H19.2638H19.2809H19.2978H19.3145H19.3311H19.3475H19.3636H19.3797H19.3955H19.4111H19.4266H19.4419H19.457H19.4719H19.4866H19.5012H19.5155H19.5297H19.5436H19.5574H19.571H19.5844H19.5976H19.6106H19.6234H19.636H19.6485H19.6607H19.6727H19.6845H19.6961H19.7075H19.7188H19.7298H19.7406H19.7512H19.7615H19.7717H19.7817H19.7915H19.801H19.8104H19.8195H19.8284H19.8371H19.8456H19.8539H19.8619H19.8698H19.8774H19.8848H19.8919H19.8989H19.9056H19.9121H19.9184H19.9245H19.9303H19.9359H19.9413H19.9464H19.9514H19.956H19.9605H19.9647H19.9687H19.9725H19.976H19.9793H19.9823H19.9851H19.9877H19.99H19.9921H19.9939H19.9955H19.9969H19.998H19.9989H19.9995H19.9999C20 11.75 20 11.75 20 11V11.75C20.4142 11.75 20.75 11.4142 20.75 11C20.75 10.5858 20.4142 10.25 20 10.25V11C20 10.25 20 10.25 19.9999 10.25H19.9995H19.9989H19.998H19.9969H19.9955H19.9939H19.9921H19.99H19.9877H19.9851H19.9823H19.9793H19.976H19.9725H19.9687H19.9647H19.9605H19.956H19.9514H19.9464H19.9413H19.9359H19.9303H19.9245H19.9184H19.9121H19.9056H19.8989H19.8919H19.8848H19.8774H19.8698H19.8619H19.8539H19.8456H19.8371H19.8284H19.8195H19.8104H19.801H19.7915H19.7817H19.7717H19.7615H19.7512H19.7406H19.7298H19.7188H19.7075H19.6961H19.6845H19.6727H19.6607H19.6485H19.636H19.6234H19.6106H19.5976H19.5844H19.571H19.5574H19.5436H19.5297H19.5155H19.5012H19.4866H19.4719H19.457H19.4419H19.4266H19.4111H19.3955H19.3797H19.3636H19.3475H19.3311H19.3145H19.2978H19.2809H19.2638H19.2466H19.2291H19.2115H19.1938H19.1758H19.1577H19.1394H19.121H19.1024H19.0836H19.0646H19.0455H19.0263H19.0068H18.9872H18.9675H18.9475H18.9275H18.9072H18.8868H18.8663H18.8456H18.8247H18.8037H18.7826H18.7612H18.7398H18.7182H18.6964H18.6745H18.6524H18.6302H18.6079H18.5854H18.5628H18.54H18.5171H18.494H18.4708H18.4475H18.424H18.4004H18.3766H18.3528H18.3287H18.3046H18.2803H18.2559H18.2314H18.2067H18.1819H18.157H18.1319H18.1067H18.0814H18.056H18.0305H18.0048H17.979H17.9531H17.9271H17.9009H17.8747H17.8483H17.8218H17.7952H17.7684H17.7416H17.7147H17.6876H17.6604H17.6332H17.6058H17.5783H17.5507H17.523H17.4952H17.4673H17.4393H17.4111H17.3829H17.3546H17.3262H17.2977H17.2691H17.2404H17.2116H17.1827H17.1537H17.1246H17.0954H17.0662H17.0368H17.0074H16.9779H16.9483H16.9186H16.8888H16.8589H16.829H16.7989H16.7688H16.7386H16.7084H16.678H16.6476H16.6171H16.5865H16.5559H16.5251H16.4943H16.4635H16.4325H16.4015H16.3704H16.3393H16.3081H16.2768H16.2454H16.214H16.1825H16.151H16.1194H16.0877H16.056H16.0242H15.9924H15.9605H15.9286H15.8966H15.8645H15.8324H15.8002H15.768H15.7357H15.7034H15.671H15.6386H15.6062H15.5737H15.5411H15.5085H15.4759H15.4432H15.4105H15.3777H15.3449H15.3121H15.2792H15.2463H15.2133H15.1803H15.1473H15.1143H15.0812H15.0481H15.0149H14.9817H14.9485H14.9153H14.882H14.8488H14.8155H14.7821H14.7488H14.7154H14.682H14.6486H14.6151H14.5817H14.5482H14.5147H14.4812H14.4477H14.4142H14.3806H14.3471H14.3135H14.2799H14.2463H14.2127H14.1791H14.1455H14.1119H14.0783H14.0447H14.0111H13.9774H13.9438H13.9102H13.8766H13.8429H13.8093H13.7757H13.7421H13.7085H13.6749H13.6413H13.6077H13.5742H13.5406H13.5071H13.4735H13.44H13.4065H13.373H13.3395H13.3061H13.2726H13.2392H13.2058H13.1724H13.139H13.1057H13.0724H13.0391H13.0058H12.9726H12.9394H12.9062H12.873H12.8399H12.8068H12.7737H12.7407H12.7077H12.6748H12.6418H12.6089H12.5761H12.5433H12.5105H12.4778H12.4451H12.4124H12.3798H12.3472H12.3147H12.2822H12.2498H12.2174H12.1851H12.1528H12.1206H12.0884H12.0562H12.0242H11.9921H11.9602H11.9283H11.8964H11.8646H11.8329H11.8012H11.7696H11.738H11.7065H11.6751H11.6437H11.6124H11.5812H11.55H11.5189H11.4878H11.4569H11.426H11.3952H11.3644H11.3337H11.3031H11.2726H11.2421H11.2118H11.1815H11.1513H11.1211H11.0911H11.0611H11.0312H11.0014H10.9717H10.942H10.9125H10.883H10.8536H10.8243H10.7951H10.766H10.737H10.7081H10.6793H10.6505H10.6219H10.5933H10.5649H10.5365H10.5083H10.4801H10.4521H10.4242H10.3963H10.3686H10.3409H10.3134H10.286H10.2587H10.2315H10.2044H10.1774H10.1505H10.1238H10.0971H10.0706H10.0442H10.0178H9.99166H9.96559H9.93964H9.91381H9.8881H9.86251H9.83705H9.81171H9.78649H9.76139H9.73643H9.71159H9.68687H9.66229H9.63783H9.61351H9.58932H9.56526H9.54134H9.51754H9.49389H9.47037H9.44699H9.42374H9.40064H9.37767H9.35485H9.33216H9.30962H9.28723H9.26498H9.24287H9.22091H9.1991H9.17743H9.15592H9.13455H9.11334H9.09228H9.07137H9.05061H9.03001H9.00957H8.98928H8.96915H8.94918H8.92936H8.90971H8.89022H8.87089H8.85172H8.83272H8.81388H8.79521H8.77671H8.75837H8.7402H8.7222H8.70438H8.68672H8.66923H8.65192H8.63479H8.61782H8.60104H8.58443H8.568H8.55174H8.53567H8.51978H8.50407H8.48854H8.4732H8.45803H8.44306H8.42827H8.41367H8.39925H8.38503H8.371H8.35715H8.3435H8.33004H8.31677H8.3037H8.29082H8.27814H8.26566H8.25338H8.24129H8.22941H8.21772H8.20624H8.19496H8.18389H8.17301H8.16235H8.15189H8.14164H8.1316H8.12176H8.11214H8.10273H8.09353H8.08454H8.07576H8.06721H8.05886H8.05074H8.04283H8.03514H8.02767H8.02042H8.01339H8.00658H8H7.99351H7.98698H7.9804H7.97379H7.96714H7.96044H7.95371H7.94694H7.94012H7.93327H7.92638H7.91945H7.91249H7.90548H7.89844H7.89135H7.88423H7.87708H7.86988H7.86265H7.85539H7.84808H7.84074H7.83336H7.82595H7.8185H7.81102H7.8035H7.79594H7.78835H7.78073H7.77307H7.76538H7.75765H7.74989H7.7421H7.73427H7.72641H7.71851H7.71058H7.70262H7.69463H7.68661H7.67855H7.67046H7.66234H7.65419H7.64601H7.6378H7.62955H7.62128H7.61297H7.60464H7.59627H7.58788H7.57946H7.571H7.56252H7.55401H7.54547H7.5369H7.52831H7.51968H7.51103H7.50235H7.49364H7.48491H7.47615H7.46736H7.45854H7.4497H7.44084H7.43194H7.42302H7.41408H7.40511H7.39612H7.3871H7.37805H7.36899H7.35989H7.35078H7.34164H7.33247H7.32328H7.31407H7.30484H7.29558H7.2863H7.277H7.26768H7.25833H7.24897H7.23958H7.23017H7.22074H7.21129H7.20181H7.19232H7.18281H7.17327H7.16372H7.15415H7.14456H7.13494H7.12531H7.11566H7.106H7.09631H7.08661H7.07688H7.06714H7.05739H7.04761H7.03782H7.02801H7.01819H7.00834H6.99848H6.98861H6.97872H6.96881H6.95889H6.94896H6.939H6.92904H6.91906H6.90906H6.89905H6.88903H6.87899H6.86894H6.85888H6.8488H6.83871H6.82861H6.81849H6.80836H6.79822H6.78807H6.77791H6.76773H6.75755H6.74735H6.73714H6.72693H6.7167H6.70646H6.69621H6.68595H6.67568H6.6654H6.65512H6.64482H6.63452H6.6242H6.61388H6.60355H6.59321H6.58287H6.57252H6.56216H6.55179H6.54142H6.53104H6.52065H6.51026H6.49986H6.48945H6.47904H6.46863H6.45821H6.44778H6.43735H6.42691H6.41647H6.40603H6.39558H6.38513H6.37468H6.36422H6.35376H6.34329H6.33283H6.32236H6.31189H6.30141H6.29094H6.28046H6.26998H6.2595H6.24902H6.23854H6.22806H6.21758H6.2071H6.19661H6.18613H6.17565H6.16517H6.15469H6.14421H6.13374H6.12326H6.11279H6.10231H6.09184H6.08138H6.07091H6.06045H6.04999H6.03953H6.02908H6.01863H6.00819H5.99775H5.98731H5.97688H5.96645H5.95603H5.94561H5.9352H5.92479H5.91439H5.90399H5.89361H5.88322H5.87285H5.86248H5.85212H5.84176H5.83141H5.82107H5.81074H5.80042H5.7901H5.77979H5.76949H5.7592H5.74892H5.73865H5.72839H5.71814H5.70789H5.69766H5.68744H5.67723H5.66703H5.65684H5.64666H5.63649H5.62634H5.61619H5.60606H5.59594H5.58583H5.57574H5.56566H5.55559H5.54553H5.53549H5.52546H5.51545H5.50545H5.49546H5.48549H5.47553H5.46559H5.45567H5.44576H5.43586H5.42598H5.41612H5.40627H5.39644H5.38662H5.37682H5.36704H5.35728H5.34753H5.33781H5.3281H5.3184H5.30873H5.29907H5.28944H5.27982H5.27022H5.26064H5.25108H5.24154H5.23202H5.22252H5.21304H5.20358H5.19414H5.18473H5.17533H5.16596H5.1566H5.14727H5.13796H5.12868H5.11941H5.11017H5.10095H5.09176H5.08258H5.07344H5.06431H5.05521H5.04613H5.03708H5.02805H5.01905H5.01007H5.00112H4.99219H4.98329H4.97441H4.96556H4.95674H4.94794H4.93917H4.93043H4.92171H4.91302H4.90436H4.89573H4.88712H4.87854H4.86999H4.86147H4.85298H4.84452H4.83608H4.82768H4.8193H4.81096H4.80264H4.79436H4.78611H4.77788H4.76969H4.76153H4.7534H4.7453H4.73723H4.72919H4.72119H4.71322H4.70528H4.69738H4.6895H4.68166H4.67386H4.66608H4.65835H4.65064H4.64297H4.63533H4.62773H4.62017H4.61263H4.60514H4.59768H4.59025H4.58286H4.57551H4.56819H4.56091H4.55367H4.54646H4.53929H4.53216H4.52507H4.51801H4.51099H4.50401H4.49707H4.49016H4.4833H4.47647H4.46969H4.46294H4.45623H4.44957H4.44294H4.43635H4.4298H4.4233H4.41683H4.41041H4.40403H4.39769H4.39139H4.38513H4.37892H4.37274H4.36661H4.36053H4.35448H4.34848H4.34252H4.33661H4.33074H4.32491H4.31913H4.31339H4.3077H4.30205H4.29645H4.29089H4.28538H4.27992H4.2745H4.26912H4.2638H4.25852H4.25328H4.24809H4.24295H4.23786H4.23282H4.22782H4.22287H4.21797H4.21312H4.20831H4.20356H4.19885H4.1942H4.18959H4.18503H4.18053H4.17607H4.17166H4.16731H4.163H4.15875H4.15455H4.15039H4.14629H4.14225H4.13825H4.13431H4.13041H4.12658H4.12279H4.11906H4.11538H4.11175H4.10818H4.10466H4.1012H4.09779H4.09443H4.09113H4.08788H4.08469H4.08156H4.07848H4.07545H4.07249H4.06957H4.06672H4.06392H4.06118H4.05849H4.05587H4.0533H4.05078H4.04833H4.04593H4.0436H4.04132H4.0391H4.03693H4.03483H4.03279H4.0308H4.02888H4.02702H4.02521H4.02347H4.02179H4.02016H4.0186H4.0171H4.01567H4.01429H4.01298H4.01172H4.01053H4.00941H4.00834H4.00734H4.0064H4.00552H4.00471H4.00396H4.00328H4.00266H4.0021H4.00161H4.00119H4.00082H4.00053H4.0003H4.00013H4.00003L4 11V10.25Z" fill="#777777"/>
<path d="M20 7C20 7 17.9571 7 17.75 7C17.5429 7 17 7 17 7" stroke="#FF003C" stroke-miterlimit="10" stroke-linecap="round" stroke-linejoin="round"/>
<path fill-rule="evenodd" clip-rule="evenodd" d="M7 19.6365C7 20.3884 7.63647 21 8.38837 21C9.14028 21 9.75185 20.3884 9.75185 19.6365L9.75204 17.2604C9.75204 17.1164 9.63561 17 9.4916 17C9.34759 17 9.23116 17.1164 9.23116 17.2604L9.23097 19.6365C9.23097 20.101 8.85287 20.4791 8.38837 20.4791C7.92387 20.4791 7.52088 20.101 7.52088 19.6365C7.52088 19.4925 7.40445 19.3761 7.26044 19.3761C7.11643 19.3761 7 19.4925 7 19.6365ZM12.0019 21C11.8637 21 11.752 20.8836 11.752 20.7396L11.7521 17.2604C11.7521 17.1164 11.8639 17 12.002 17C12.1402 17 12.252 17.1164 12.252 17.2604L12.2518 20.7396C12.2518 20.8836 12.1401 21 12.0019 21ZM15.6155 21C16.3674 21 17.0039 20.3884 17.0039 19.6365C17.0039 19.4925 16.8875 19.3761 16.7435 19.3761C16.5995 19.3761 16.483 19.4925 16.483 19.6365C16.483 20.101 16.08 20.4791 15.6155 20.4791C15.151 20.4791 14.7729 20.101 14.7729 19.6365L14.7727 17.2604C14.7727 17.1164 14.6563 17 14.5123 17C14.3683 17 14.2519 17.1164 14.2519 17.2604L14.2521 19.6365C14.2521 20.3884 14.8636 21 15.6155 21Z" fill="#777777"/>
</svg>
